<?xml version="1.0" standalone="no"?>
<!DOCTYPE svg PUBLIC "-//W3C//DTD SVG 20010904//EN"
 "http://www.w3.org/TR/2001/REC-SVG-20010904/DTD/svg10.dtd">
<svg version="1.0" xmlns="http://www.w3.org/2000/svg"
 width="360.000000pt" height="360.000000pt" viewBox="0 0 360.000000 360.000000"
 preserveAspectRatio="xMidYMid meet">
<metadata>
Created by potrace 1.16, written by Peter Selinger 2001-2019
</metadata>
<g transform="translate(0.000000,360.000000) scale(0.100000,-0.100000)"
fill="#000000" stroke="none">
<path d="M185 2999 c-11 -6 -31 -26 -45 -46 l-25 -37 -3 -960 c-2 -529 0
-1013 3 -1076 l7 -115 38 -37 38 -38 1622 0 1622 0 39 39 39 39 0 1082 0 1082
-39 39 -39 39 -1618 -1 c-1035 0 -1626 -4 -1639 -10z m3195 -1141 c0 -595 -4
-1008 -9 -1002 -5 5 -45 65 -88 134 -69 109 -328 514 -437 682 -20 32 -45 62
-55 68 -25 13 -67 13 -91 0 -10 -5 -78 -103 -150 -217 -148 -231 -141 -222
-146 -208 -2 6 -123 198 -269 429 -146 230 -288 457 -317 503 -56 92 -78 113
-119 113 -37 0 -64 -25 -112 -103 -106 -171 -529 -837 -532 -837 -2 0 -43 56
-92 124 -84 119 -112 146 -151 146 -42 0 -38 5 -424 -549 l-128 -184 0 957 0
956 1560 0 1560 0 0 -1012z"/>
<path d="M2557 2720 c-137 -43 -183 -228 -83 -332 89 -92 240 -80 313 25 39
56 43 144 11 207 -43 84 -151 129 -241 100z"/>
</g>
</svg>
